<svg width="1440" height="1171" viewBox="0 0 1440 1171" fill="none" xmlns="http://www.w3.org/2000/svg">
<path d="M809.001 405V210L920.001 273.876V339.802L870.029 368.436L809.001 405Z" fill="url(#paint0_linear)"/>
<path d="M981.001 238L920.001 273.451V381L981.001 345.992V238Z" fill="url(#paint1_linear)"/>
<path d="M791.001 492.946V416.006L851.001 451.067L850.033 528.006L791.001 492.946Z" fill="url(#paint2_linear)"/>
<path d="M1093 599.006V520.386L1153.1 485.006L1154 563.827L1093 599.006Z" fill="url(#paint3_linear)"/>
<path d="M1202 391.079V253L1384 359.251V645.628L1380.02 877H1333.64V740.55L1214.37 669.737V599.226L1202 591.516V391.079Z" fill="url(#paint4_linear)"/>
<path d="M913 1003V415L1093 521.289V599.299L973.324 669.507L972.351 1003H913Z" fill="url(#paint5_linear)"/>
<path d="M791 492.8V352L610 457.6L730.667 528L791 492.8Z" fill="url(#paint6_linear)"/>
<path d="M972 380.221L1153 274V486L972 380.221Z" fill="url(#paint7_linear)"/>
<path d="M850.646 451.086L913 415V635.416L851.621 599.33L670.405 705.637V775.858V1097.7L610 1165V951.411V668.576L850.646 529.109V451.086Z" fill="url(#paint8_linear)"/>
<path d="M549 1051.3V776.994V634.006L610 668.051V950.137V1133.01L549 1103.82V1051.3Z" fill="url(#paint9_linear)"/>
<path d="M671 564.028L489.973 459L489 741.991L550.316 777V634.046L671 564.028Z" fill="url(#paint10_linear)"/>
<path fill-rule="evenodd" clip-rule="evenodd" d="M789.731 871.913L970.956 977.647L1031.36 942.402L850.139 836.669L789.731 871.913ZM910.547 942.402L729.321 1048.14L789.73 1083.38L970.955 977.647L910.547 942.402Z" fill="url(#paint11_linear)"/>
<path d="M913 634.006L791 703.949L850.536 739.892V836.063L913 872.006V634.006Z" fill="url(#paint12_linear)"/>
<path d="M790.976 774.146L668 704.006V1081.01L912 942.675L790.976 871.562V774.146Z" fill="url(#paint13_linear)"/>
<path d="M850 740.006L791 773.969V871.006L850 836.073V740.006Z" fill="url(#paint14_linear)"/>
<path d="M370 881.907L246 812.006V1109.08L368.047 1145.01L370 881.907Z" fill="url(#paint15_linear)"/>
<path d="M1275 774.688L1094 669.006V1041.77L1275 1170.01V774.688Z" fill="url(#paint16_linear)"/>
<path d="M247 707V565L371 637.945L247 707Z" fill="url(#paint17_linear)"/>
<path d="M1155 634.279L1214 599V670L1155 634.279Z" fill="url(#paint18_linear)"/>
<path fill-rule="evenodd" clip-rule="evenodd" d="M6.56331 512.727L127.38 442.238L187.789 477.482L67.2221 547.825L127.881 583.216L67.4726 618.46L-53.3443 547.971L6.81382 512.873L6.56331 512.727ZM920.468 274.501L808.982 210.075L869.39 174.83L980.876 239.256L920.468 274.501ZM126.693 777.742L368.327 636.764L247.51 566.275L307.919 531.03L428.736 601.519L428.735 601.52L489.143 636.764L187.101 812.986L126.693 777.742ZM1092.85 239.201L790.75 415.466L851.211 450.668L911.62 415.423L1092.85 521.156L1153.25 485.912L972.029 380.178L1153.25 274.445L1092.85 239.201ZM730.221 527.881L790.751 492.347L851.16 527.592L609.961 669.183L549.552 633.939L669.997 563.234L489.476 458.367L549.552 422.472L549.551 422.471L730.776 316.738L791.184 351.982L609.959 457.716L730.221 527.881ZM972.411 669.183L1153.64 563.449L1214.04 598.694L1153.64 633.939L1334.86 739.672L1274.45 774.916L1093.23 669.183L1032.82 704.427L972.411 669.183ZM730.776 669.183L851.593 598.694L912.001 633.938L791.185 704.427L851.595 739.672L791.186 774.916L670.369 704.427L730.777 669.183L730.776 669.183ZM247.51 812.111L368.327 882.6L428.735 847.355L307.919 776.866L247.51 812.111ZM368.327 812.111L489.144 741.622L549.552 776.866L428.736 847.355L368.327 812.111ZM1262.48 217.908L1202.07 253.153L1383.3 358.886L1443.71 323.642L1262.48 217.908Z" fill="url(#paint19_linear)"/>
<path d="M787 1090.01L1031 941.006V1063.71L787 1090.01Z" fill="url(#paint20_linear)"/>
<path d="M489 637.006L188 811.878V948.006L247.421 906.975V811.877L309.764 776.708L369.184 811.877L489 741.538V637.006Z" fill="url(#paint21_linear)"/>
<path d="M188 477L67 548.042L126.048 584.036V778L188 741.231V477Z" fill="url(#paint22_linear)"/>
<path d="M66 618.14L-56 548V925H66V817.561V618.14Z" fill="url(#paint23_linear)"/>
<path d="M126 584.5L67 618.912V776.842V909L86.3333 901.488L128 892.207L127 741.961L126 584.5Z" fill="url(#paint24_linear)"/>
<path d="M369 882.223L549 777.006V1106.29L369 1155.01V882.223Z" fill="url(#paint25_linear)"/>
<path d="M1094 669.006L1031 704.01V1063.78L1094 1126.01V669.006Z" fill="url(#paint26_linear)"/>
<path d="M971 907.881V669.006L1033 704.106V942.006L971 907.881Z" fill="url(#paint27_linear)"/>
<path d="M1442.5 324.5L1382.5 358.5V821.5H1442.5V324.5Z" fill="url(#paint28_linear)"/>
<defs>
<linearGradient id="paint0_linear" x1="864.501" y1="210" x2="864.501" y2="405" gradientUnits="userSpaceOnUse">
<stop stop-color="#A1FAD7"/>
<stop offset="1" stop-color="white"/>
</linearGradient>
<linearGradient id="paint1_linear" x1="950.501" y1="238" x2="950.501" y2="381" gradientUnits="userSpaceOnUse">
<stop stop-color="#AFECF2"/>
<stop offset="1" stop-color="white"/>
</linearGradient>
<linearGradient id="paint2_linear" x1="821.001" y1="416.006" x2="821.001" y2="528.006" gradientUnits="userSpaceOnUse">
<stop stop-color="#A1FAD7"/>
<stop offset="1" stop-color="white"/>
</linearGradient>
<linearGradient id="paint3_linear" x1="1122.81" y1="486.871" x2="1122.81" y2="595.544" gradientUnits="userSpaceOnUse">
<stop stop-color="#BEC4F7"/>
<stop offset="1" stop-color="white"/>
</linearGradient>
<linearGradient id="paint4_linear" x1="1293" y1="253" x2="1293" y2="877" gradientUnits="userSpaceOnUse">
<stop stop-color="#AFECF2"/>
<stop offset="1" stop-color="white"/>
</linearGradient>
<linearGradient id="paint5_linear" x1="1000.95" y1="424.617" x2="1000.95" y2="985.14" gradientUnits="userSpaceOnUse">
<stop stop-color="#BEC4F7"/>
<stop offset="1" stop-color="white"/>
</linearGradient>
<linearGradient id="paint6_linear" x1="698.439" y1="354.879" x2="698.439" y2="522.654" gradientUnits="userSpaceOnUse">
<stop stop-color="#BEC4F7"/>
<stop offset="1" stop-color="white"/>
</linearGradient>
<linearGradient id="paint7_linear" x1="1062.5" y1="274" x2="1062.5" y2="486" gradientUnits="userSpaceOnUse">
<stop stop-color="#AFECF2"/>
<stop offset="1" stop-color="white"/>
</linearGradient>
<linearGradient id="paint8_linear" x1="761.5" y1="415" x2="761.5" y2="1165" gradientUnits="userSpaceOnUse">
<stop stop-color="#BBE2FF"/>
<stop offset="1" stop-color="#C4C4C4" stop-opacity="0"/>
</linearGradient>
<linearGradient id="paint9_linear" x1="578.805" y1="642.167" x2="578.805" y2="1117.85" gradientUnits="userSpaceOnUse">
<stop stop-color="#BEC4F7"/>
<stop offset="1" stop-color="white"/>
</linearGradient>
<linearGradient id="paint10_linear" x1="580" y1="459" x2="580" y2="777" gradientUnits="userSpaceOnUse">
<stop stop-color="#AFECF2"/>
<stop offset="1" stop-color="white"/>
</linearGradient>
<linearGradient id="paint11_linear" x1="880.343" y1="836.669" x2="880.343" y2="1083.38" gradientUnits="userSpaceOnUse">
<stop stop-color="#F5D6EE"/>
<stop offset="0.867403" stop-color="white"/>
</linearGradient>
<linearGradient id="paint12_linear" x1="852.488" y1="567.949" x2="852.005" y2="872.006" gradientUnits="userSpaceOnUse">
<stop stop-color="#8E99FD"/>
<stop offset="1" stop-color="#909BFF" stop-opacity="0"/>
</linearGradient>
<linearGradient id="paint13_linear" x1="787.222" y1="710.172" x2="787.222" y2="1069.56" gradientUnits="userSpaceOnUse">
<stop stop-color="#BEC4F7"/>
<stop offset="1" stop-color="white"/>
</linearGradient>
<linearGradient id="paint14_linear" x1="819.828" y1="742.149" x2="819.828" y2="867.027" gradientUnits="userSpaceOnUse">
<stop stop-color="#BEC4F7"/>
<stop offset="1" stop-color="white"/>
</linearGradient>
<linearGradient id="paint15_linear" x1="307.024" y1="812.977" x2="307.024" y2="1145.01" gradientUnits="userSpaceOnUse">
<stop stop-color="#9EA8FE"/>
<stop offset="1" stop-color="white" stop-opacity="0"/>
</linearGradient>
<linearGradient id="paint16_linear" x1="1128.08" y1="705.097" x2="1123.2" y2="1087.46" gradientUnits="userSpaceOnUse">
<stop stop-color="#97A2FE"/>
<stop offset="0.97005" stop-color="white"/>
</linearGradient>
<linearGradient id="paint17_linear" x1="307.588" y1="567.322" x2="307.588" y2="702.687" gradientUnits="userSpaceOnUse">
<stop stop-color="#BEC4F7"/>
<stop offset="1" stop-color="white"/>
</linearGradient>
<linearGradient id="paint18_linear" x1="1183.83" y1="600.161" x2="1183.83" y2="667.843" gradientUnits="userSpaceOnUse">
<stop stop-color="#BEC4F7"/>
<stop offset="1" stop-color="white"/>
</linearGradient>
<linearGradient id="paint19_linear" x1="360.775" y1="303.067" x2="798.188" y2="1052.79" gradientUnits="userSpaceOnUse">
<stop stop-color="#FEFFD1"/>
<stop offset="0.220994" stop-color="#C1FFD6"/>
<stop offset="0.513812" stop-color="#9FD7FF"/>
<stop offset="0.668508" stop-color="#FBCEFF"/>
<stop offset="1" stop-color="#BB6BD9"/>
</linearGradient>
<linearGradient id="paint20_linear" x1="912.402" y1="941.006" x2="912.402" y2="1089.03" gradientUnits="userSpaceOnUse">
<stop stop-color="#B0B8FE"/>
<stop offset="1" stop-color="white" stop-opacity="0"/>
</linearGradient>
<linearGradient id="paint21_linear" x1="335.072" y1="642.093" x2="335.072" y2="938.56" gradientUnits="userSpaceOnUse">
<stop stop-color="#BEC4F7"/>
<stop offset="1" stop-color="white"/>
</linearGradient>
<linearGradient id="paint22_linear" x1="128" y1="443.89" x2="127.497" y2="778" gradientUnits="userSpaceOnUse">
<stop stop-color="#FFFDC5"/>
<stop offset="1" stop-color="white" stop-opacity="0.44"/>
</linearGradient>
<linearGradient id="paint23_linear" x1="3.61075" y1="554.166" x2="3.61075" y2="913.549" gradientUnits="userSpaceOnUse">
<stop stop-color="#BEC4F7"/>
<stop offset="1" stop-color="white"/>
</linearGradient>
<linearGradient id="paint24_linear" x1="97.7521" y1="548.805" x2="96.5917" y2="908.997" gradientUnits="userSpaceOnUse">
<stop stop-color="#FFFDC5"/>
<stop offset="1" stop-color="white" stop-opacity="0.44"/>
</linearGradient>
<linearGradient id="paint25_linear" x1="456.95" y1="783.188" x2="456.95" y2="1143.52" gradientUnits="userSpaceOnUse">
<stop stop-color="#BEC4F7"/>
<stop offset="1" stop-color="white"/>
</linearGradient>
<linearGradient id="paint26_linear" x1="1061.78" y1="676.48" x2="1061.78" y2="1112.13" gradientUnits="userSpaceOnUse">
<stop stop-color="#BEC4F7"/>
<stop offset="1" stop-color="white"/>
</linearGradient>
<linearGradient id="paint27_linear" x1="1001.29" y1="673.471" x2="1001.29" y2="933.714" gradientUnits="userSpaceOnUse">
<stop stop-color="#BEC4F7"/>
<stop offset="1" stop-color="white"/>
</linearGradient>
<linearGradient id="paint28_linear" x1="1412.5" y1="324.5" x2="1412.5" y2="821.5" gradientUnits="userSpaceOnUse">
<stop stop-color="#EDD5FF"/>
<stop offset="1" stop-color="white" stop-opacity="0"/>
</linearGradient>
</defs>
</svg>
