<?xml version="1.0" encoding="utf-8"?>
<!-- Generator: Adobe Illustrator 16.0.0, SVG Export Plug-In . SVG Version: 6.00 Build 0)  -->
<!DOCTYPE svg PUBLIC "-//W3C//DTD SVG 1.1//EN" "http://www.w3.org/Graphics/SVG/1.1/DTD/svg11.dtd">
<svg version="1.1" id="Layer_1" xmlns="http://www.w3.org/2000/svg" xmlns:xlink="http://www.w3.org/1999/xlink" x="0px" y="0px"
	 width="202px" height="46px" viewBox="0 0 202 46" enable-background="new 0 0 202 46" xml:space="preserve">
<title>Logo White</title>
<desc>Created with Sketch.</desc>
<g id="Website-V1">
	<g id="Logo-White" transform="translate(-101.000000, -1316.000000)">
		<g transform="translate(101.000000, 1316.000000)">
			<g id="Group" transform="translate(51.401786, 13.529412)">
				<path id="Fill-1" fill="#6917BF" d="M6.181,18.484c0.491-0.176,0.891-0.417,1.201-0.723c0.31-0.305,0.562-0.688,0.758-1.147
					c0.196-0.46,0.333-0.949,0.41-1.468c0.078-0.519,0.116-1.105,0.116-1.76v-0.905H7.493v1.104c0,0.669-0.044,1.241-0.133,1.716
					c-0.089,0.475-0.24,0.903-0.454,1.285c-0.214,0.383-0.522,0.67-0.924,0.861c-0.402,0.191-0.902,0.287-1.5,0.287
					c-0.502,0-0.941-0.064-1.317-0.193S2.479,17.232,2.235,17c-0.243-0.231-0.439-0.529-0.586-0.894
					c-0.148-0.364-0.251-0.76-0.31-1.187c-0.059-0.426-0.088-0.923-0.088-1.49v-8.1c0-0.691,0.044-1.282,0.133-1.771
					C1.472,3.07,1.63,2.623,1.859,2.218C2.088,1.814,2.42,1.51,2.855,1.307c0.436-0.202,0.978-0.303,1.627-0.303
					c1.136,0,1.921,0.34,2.357,1.021c0.435,0.681,0.653,1.72,0.653,3.118V6.08h1.173V5.154c0-0.809-0.07-1.518-0.21-2.125
					C8.315,2.422,8.088,1.885,7.775,1.418C7.461,0.951,7.029,0.598,6.48,0.359C5.93,0.12,5.264,0,4.482,0
					C3.789,0,3.182,0.09,2.662,0.27C2.142,0.451,1.713,0.697,1.378,1.01C1.042,1.323,0.771,1.714,0.565,2.185
					C0.358,2.656,0.212,3.156,0.128,3.686C0.043,4.216,0,4.811,0,5.474v7.759c0,0.654,0.039,1.24,0.116,1.76
					c0.078,0.519,0.218,1.019,0.42,1.5c0.203,0.482,0.468,0.883,0.797,1.203c0.328,0.32,0.758,0.576,1.29,0.768
					s1.151,0.287,1.859,0.287C5.124,18.75,5.69,18.661,6.181,18.484z M21.025,17.745c0.339-0.309,0.614-0.696,0.825-1.164
					c0.21-0.468,0.358-0.962,0.442-1.484c0.085-0.522,0.127-1.11,0.127-1.766V5.308c0-0.809-0.076-1.524-0.227-2.146
					c-0.152-0.622-0.397-1.175-0.736-1.661c-0.339-0.486-0.808-0.857-1.405-1.115C19.454,0.129,18.731,0,17.882,0
					c-0.686,0-1.289,0.087-1.81,0.26c-0.52,0.172-0.952,0.41-1.295,0.711c-0.343,0.302-0.624,0.679-0.841,1.131
					c-0.218,0.452-0.371,0.938-0.459,1.457s-0.133,1.102-0.133,1.749v7.99c0,0.655,0.042,1.245,0.127,1.771
					c0.084,0.526,0.232,1.024,0.442,1.495c0.21,0.471,0.483,0.863,0.819,1.176c0.335,0.312,0.769,0.559,1.3,0.738
					c0.531,0.181,1.147,0.271,1.848,0.271c0.701,0,1.315-0.091,1.843-0.271C20.253,18.299,20.686,18.055,21.025,17.745z
					 M15.243,16.575c-0.24-0.382-0.408-0.812-0.503-1.291c-0.096-0.478-0.144-1.048-0.144-1.71V5.132
					c0-0.663,0.048-1.23,0.144-1.705c0.096-0.475,0.264-0.901,0.503-1.28s0.579-0.664,1.019-0.855
					c0.438-0.191,0.979-0.287,1.621-0.287s1.183,0.095,1.622,0.287c0.438,0.192,0.778,0.477,1.018,0.855s0.407,0.806,0.503,1.28
					c0.096,0.475,0.144,1.042,0.144,1.705v8.442c0,0.662-0.05,1.232-0.149,1.71c-0.1,0.479-0.268,0.909-0.503,1.291
					c-0.236,0.383-0.574,0.672-1.013,0.866c-0.439,0.195-0.979,0.293-1.622,0.293s-1.183-0.098-1.621-0.293
					C15.822,17.247,15.482,16.958,15.243,16.575z M28.781,18.507V3.023l6.231,15.483h0.974V0.21h-1.095v15.45l-6.22-15.45h-0.985
					v18.297H28.781z M48.307,17.718c0.742-0.681,1.112-1.683,1.112-3.007c0-0.898-0.242-1.75-0.725-2.555
					c-0.483-0.807-1.149-1.629-1.998-2.467l-3.309-3.255c-0.487-0.493-0.833-0.958-1.04-1.396c-0.207-0.438-0.31-0.896-0.31-1.374
					c0-0.89,0.266-1.554,0.797-1.992c0.531-0.438,1.243-0.664,2.136-0.679h0.11c1.019,0,1.758,0.309,2.219,0.927
					c0.461,0.618,0.75,1.589,0.869,2.913l1.04-0.243c-0.103-1.655-0.509-2.834-1.217-3.537S46.276,0,44.971,0h-0.034
					c-1.225,0.007-2.2,0.336-2.927,0.988c-0.727,0.651-1.09,1.573-1.09,2.765c0,1.258,0.531,2.417,1.593,3.476l3.354,3.332
					c0.833,0.824,1.44,1.545,1.82,2.164c0.38,0.617,0.57,1.302,0.57,2.053c0,1.964-0.978,2.945-2.933,2.945
					c-0.465,0-0.876-0.065-1.234-0.198c-0.358-0.132-0.655-0.311-0.891-0.535c-0.236-0.225-0.439-0.515-0.609-0.872
					c-0.169-0.356-0.3-0.727-0.393-1.109c-0.092-0.382-0.171-0.834-0.238-1.357l-1.085,0.343c0.266,3.163,1.745,4.745,4.438,4.745
					C46.568,18.738,47.566,18.398,48.307,17.718z M57.419,18.507V1.192h3.808V0.21h-8.931v0.982h3.884v17.315H57.419z
					 M71.428,18.507v-0.972h-5.169V9.49h4.194V8.53h-4.194V1.192h5.113V0.21H65.02v18.297H71.428z M82.979,18.507v-0.972h-5.544
					V0.21h-1.239v18.297H82.979z M93.702,18.507v-0.972h-5.545V0.21h-1.239v18.297H93.702z M101.248,1.7l2.214,10.837h-4.406
					L101.248,1.7z M97.894,18.507l0.985-5.055h4.758l0.952,5.055h1.239L101.945,0.21h-1.417l-3.852,18.297H97.894z M113.795,18.507
					V1.192h3.807V0.21h-8.931v0.982h3.884v17.315H113.795z M121.44,18.507h1.229V0.21h-1.229V18.507z M135.637,17.745
					c0.34-0.309,0.614-0.696,0.824-1.164c0.211-0.468,0.358-0.962,0.443-1.484c0.084-0.522,0.127-1.11,0.127-1.766V5.308
					c0-0.809-0.076-1.524-0.227-2.146c-0.151-0.622-0.396-1.175-0.736-1.661c-0.34-0.486-0.808-0.857-1.405-1.115
					C134.066,0.129,133.342,0,132.495,0c-0.687,0-1.289,0.087-1.81,0.26c-0.521,0.172-0.952,0.41-1.295,0.711
					s-0.624,0.679-0.841,1.131c-0.219,0.452-0.371,0.938-0.459,1.457c-0.09,0.519-0.133,1.102-0.133,1.749v7.99
					c0,0.655,0.041,1.245,0.127,1.771c0.084,0.526,0.232,1.024,0.442,1.495s0.483,0.863,0.819,1.176
					c0.335,0.312,0.77,0.559,1.3,0.738c0.532,0.181,1.147,0.271,1.849,0.271s1.314-0.091,1.842-0.271
					C134.864,18.299,135.298,18.055,135.637,17.745z M129.855,16.575c-0.24-0.382-0.407-0.812-0.504-1.291
					c-0.096-0.478-0.144-1.048-0.144-1.71V5.132c0-0.663,0.048-1.23,0.144-1.705c0.097-0.475,0.264-0.901,0.504-1.28
					c0.239-0.379,0.579-0.664,1.019-0.855c0.438-0.191,0.979-0.287,1.621-0.287c0.642,0,1.182,0.095,1.621,0.287
					c0.438,0.192,0.778,0.477,1.018,0.855c0.24,0.379,0.408,0.806,0.504,1.28s0.145,1.042,0.145,1.705v8.442
					c0,0.662-0.051,1.232-0.15,1.71c-0.1,0.479-0.268,0.909-0.503,1.291c-0.236,0.383-0.574,0.672-1.013,0.866
					c-0.439,0.195-0.979,0.293-1.621,0.293c-0.643,0-1.183-0.098-1.621-0.293C130.434,17.247,130.094,16.958,129.855,16.575z
					 M143.393,18.507V3.023l6.23,15.483h0.975V0.21h-1.096v15.45l-6.22-15.45h-0.985v18.297H143.393z"/>
				<path id="Fill-1_1_" fill="#6917BF" d="M6.181,18.484c0.491-0.176,0.891-0.417,1.201-0.723c0.31-0.305,0.562-0.688,0.758-1.147
					c0.196-0.46,0.333-0.949,0.41-1.468c0.078-0.519,0.116-1.105,0.116-1.76v-0.905H7.493v1.104c0,0.669-0.044,1.241-0.133,1.716
					c-0.089,0.475-0.24,0.903-0.454,1.285c-0.214,0.383-0.522,0.67-0.924,0.861c-0.402,0.191-0.902,0.287-1.5,0.287
					c-0.502,0-0.941-0.064-1.317-0.193S2.479,17.232,2.235,17c-0.243-0.231-0.439-0.529-0.586-0.894
					c-0.148-0.364-0.251-0.76-0.31-1.187c-0.059-0.426-0.088-0.923-0.088-1.49v-8.1c0-0.691,0.044-1.282,0.133-1.771
					C1.472,3.07,1.63,2.623,1.859,2.218C2.088,1.814,2.42,1.51,2.855,1.307c0.436-0.202,0.978-0.303,1.627-0.303
					c1.136,0,1.921,0.34,2.357,1.021c0.435,0.681,0.653,1.72,0.653,3.118V6.08h1.173V5.154c0-0.809-0.07-1.518-0.21-2.125
					C8.315,2.422,8.088,1.885,7.775,1.418C7.461,0.951,7.029,0.598,6.48,0.359C5.93,0.12,5.264,0,4.482,0
					C3.789,0,3.182,0.09,2.662,0.27C2.142,0.451,1.713,0.697,1.378,1.01C1.042,1.323,0.771,1.714,0.565,2.185
					C0.358,2.656,0.212,3.156,0.128,3.686C0.043,4.216,0,4.811,0,5.474v7.759c0,0.654,0.039,1.24,0.116,1.76
					c0.078,0.519,0.218,1.019,0.42,1.5c0.203,0.482,0.468,0.883,0.797,1.203c0.328,0.32,0.758,0.576,1.29,0.768
					s1.151,0.287,1.859,0.287C5.124,18.75,5.69,18.661,6.181,18.484z M21.025,17.745c0.339-0.309,0.614-0.696,0.825-1.164
					c0.21-0.468,0.358-0.962,0.442-1.484c0.085-0.522,0.127-1.11,0.127-1.766V5.308c0-0.809-0.076-1.524-0.227-2.146
					c-0.152-0.622-0.397-1.175-0.736-1.661c-0.339-0.486-0.808-0.857-1.405-1.115C19.454,0.129,18.731,0,17.882,0
					c-0.686,0-1.289,0.087-1.81,0.26c-0.52,0.172-0.952,0.41-1.295,0.711c-0.343,0.302-0.624,0.679-0.841,1.131
					c-0.218,0.452-0.371,0.938-0.459,1.457s-0.133,1.102-0.133,1.749v7.99c0,0.655,0.042,1.245,0.127,1.771
					c0.084,0.526,0.232,1.024,0.442,1.495c0.21,0.471,0.483,0.863,0.819,1.176c0.335,0.312,0.769,0.559,1.3,0.738
					c0.531,0.181,1.147,0.271,1.848,0.271c0.701,0,1.315-0.091,1.843-0.271C20.253,18.299,20.686,18.055,21.025,17.745z
					 M15.243,16.575c-0.24-0.382-0.408-0.812-0.503-1.291c-0.096-0.478-0.144-1.048-0.144-1.71V5.132
					c0-0.663,0.048-1.23,0.144-1.705c0.096-0.475,0.264-0.901,0.503-1.28s0.579-0.664,1.019-0.855
					c0.438-0.191,0.979-0.287,1.621-0.287s1.183,0.095,1.622,0.287c0.438,0.192,0.778,0.477,1.018,0.855s0.407,0.806,0.503,1.28
					c0.096,0.475,0.144,1.042,0.144,1.705v8.442c0,0.662-0.05,1.232-0.149,1.71c-0.1,0.479-0.268,0.909-0.503,1.291
					c-0.236,0.383-0.574,0.672-1.013,0.866c-0.439,0.195-0.979,0.293-1.622,0.293s-1.183-0.098-1.621-0.293
					C15.822,17.247,15.482,16.958,15.243,16.575z M28.781,18.507V3.023l6.231,15.483h0.974V0.21h-1.095v15.45l-6.22-15.45h-0.985
					v18.297H28.781z M48.307,17.718c0.742-0.681,1.112-1.683,1.112-3.007c0-0.898-0.242-1.75-0.725-2.555
					c-0.483-0.807-1.149-1.629-1.998-2.467l-3.309-3.255c-0.487-0.493-0.833-0.958-1.04-1.396c-0.207-0.438-0.31-0.896-0.31-1.374
					c0-0.89,0.266-1.554,0.797-1.992c0.531-0.438,1.243-0.664,2.136-0.679h0.11c1.019,0,1.758,0.309,2.219,0.927
					c0.461,0.618,0.75,1.589,0.869,2.913l1.04-0.243c-0.103-1.655-0.509-2.834-1.217-3.537S46.276,0,44.971,0h-0.034
					c-1.225,0.007-2.2,0.336-2.927,0.988c-0.727,0.651-1.09,1.573-1.09,2.765c0,1.258,0.531,2.417,1.593,3.476l3.354,3.332
					c0.833,0.824,1.44,1.545,1.82,2.164c0.38,0.617,0.57,1.302,0.57,2.053c0,1.964-0.978,2.945-2.933,2.945
					c-0.465,0-0.876-0.065-1.234-0.198c-0.358-0.132-0.655-0.311-0.891-0.535c-0.236-0.225-0.439-0.515-0.609-0.872
					c-0.169-0.356-0.3-0.727-0.393-1.109c-0.092-0.382-0.171-0.834-0.238-1.357l-1.085,0.343c0.266,3.163,1.745,4.745,4.438,4.745
					C46.568,18.738,47.566,18.398,48.307,17.718z M57.419,18.507V1.192h3.808V0.21h-8.931v0.982h3.884v17.315H57.419z
					 M71.428,18.507v-0.972h-5.169V9.49h4.194V8.53h-4.194V1.192h5.113V0.21H65.02v18.297H71.428z M82.979,18.507v-0.972h-5.544
					V0.21h-1.239v18.297H82.979z M93.702,18.507v-0.972h-5.545V0.21h-1.239v18.297H93.702z M101.248,1.7l2.214,10.837h-4.406
					L101.248,1.7z M97.894,18.507l0.985-5.055h4.758l0.952,5.055h1.239L101.945,0.21h-1.417l-3.852,18.297H97.894z M113.795,18.507
					V1.192h3.807V0.21h-8.931v0.982h3.884v17.315H113.795z M121.44,18.507h1.229V0.21h-1.229V18.507z M135.637,17.745
					c0.34-0.309,0.614-0.696,0.824-1.164c0.211-0.468,0.358-0.962,0.443-1.484c0.084-0.522,0.127-1.11,0.127-1.766V5.308
					c0-0.809-0.076-1.524-0.227-2.146c-0.151-0.622-0.396-1.175-0.736-1.661c-0.34-0.486-0.808-0.857-1.405-1.115
					C134.066,0.129,133.342,0,132.495,0c-0.687,0-1.289,0.087-1.81,0.26c-0.521,0.172-0.952,0.41-1.295,0.711
					s-0.624,0.679-0.841,1.131c-0.219,0.452-0.371,0.938-0.459,1.457c-0.09,0.519-0.133,1.102-0.133,1.749v7.99
					c0,0.655,0.041,1.245,0.127,1.771c0.084,0.526,0.232,1.024,0.442,1.495s0.483,0.863,0.819,1.176
					c0.335,0.312,0.77,0.559,1.3,0.738c0.532,0.181,1.147,0.271,1.849,0.271s1.314-0.091,1.842-0.271
					C134.864,18.299,135.298,18.055,135.637,17.745z M129.855,16.575c-0.24-0.382-0.407-0.812-0.504-1.291
					c-0.096-0.478-0.144-1.048-0.144-1.71V5.132c0-0.663,0.048-1.23,0.144-1.705c0.097-0.475,0.264-0.901,0.504-1.28
					c0.239-0.379,0.579-0.664,1.019-0.855c0.438-0.191,0.979-0.287,1.621-0.287c0.642,0,1.182,0.095,1.621,0.287
					c0.438,0.192,0.778,0.477,1.018,0.855c0.24,0.379,0.408,0.806,0.504,1.28s0.145,1.042,0.145,1.705v8.442
					c0,0.662-0.051,1.232-0.15,1.71c-0.1,0.479-0.268,0.909-0.503,1.291c-0.236,0.383-0.574,0.672-1.013,0.866
					c-0.439,0.195-0.979,0.293-1.621,0.293c-0.643,0-1.183-0.098-1.621-0.293C130.434,17.247,130.094,16.958,129.855,16.575z
					 M143.393,18.507V3.023l6.23,15.483h0.975V0.21h-1.096v15.45l-6.22-15.45h-0.985v18.297H143.393z"/>
				<path id="Fill-1_2_" fill="#6917BF" d="M6.181,18.484c0.491-0.176,0.891-0.417,1.201-0.723c0.31-0.305,0.562-0.688,0.758-1.147
					c0.196-0.46,0.333-0.949,0.41-1.468c0.078-0.519,0.116-1.105,0.116-1.76v-0.905H7.493v1.104c0,0.669-0.044,1.241-0.133,1.716
					c-0.089,0.475-0.24,0.903-0.454,1.285c-0.214,0.383-0.522,0.67-0.924,0.861c-0.402,0.191-0.902,0.287-1.5,0.287
					c-0.502,0-0.941-0.064-1.317-0.193S2.479,17.232,2.235,17c-0.243-0.231-0.439-0.529-0.586-0.894
					c-0.148-0.364-0.251-0.76-0.31-1.187c-0.059-0.426-0.088-0.923-0.088-1.49v-8.1c0-0.691,0.044-1.282,0.133-1.771
					C1.472,3.07,1.63,2.623,1.859,2.218C2.088,1.814,2.42,1.51,2.855,1.307c0.436-0.202,0.978-0.303,1.627-0.303
					c1.136,0,1.921,0.34,2.357,1.021c0.435,0.681,0.653,1.72,0.653,3.118V6.08h1.173V5.154c0-0.809-0.07-1.518-0.21-2.125
					C8.315,2.422,8.088,1.885,7.775,1.418C7.461,0.951,7.029,0.598,6.48,0.359C5.93,0.12,5.264,0,4.482,0
					C3.789,0,3.182,0.09,2.662,0.27C2.142,0.451,1.713,0.697,1.378,1.01C1.042,1.323,0.771,1.714,0.565,2.185
					C0.358,2.656,0.212,3.156,0.128,3.686C0.043,4.216,0,4.811,0,5.474v7.759c0,0.654,0.039,1.24,0.116,1.76
					c0.078,0.519,0.218,1.019,0.42,1.5c0.203,0.482,0.468,0.883,0.797,1.203c0.328,0.32,0.758,0.576,1.29,0.768
					s1.151,0.287,1.859,0.287C5.124,18.75,5.69,18.661,6.181,18.484z M21.025,17.745c0.339-0.309,0.614-0.696,0.825-1.164
					c0.21-0.468,0.358-0.962,0.442-1.484c0.085-0.522,0.127-1.11,0.127-1.766V5.308c0-0.809-0.076-1.524-0.227-2.146
					c-0.152-0.622-0.397-1.175-0.736-1.661c-0.339-0.486-0.808-0.857-1.405-1.115C19.454,0.129,18.731,0,17.882,0
					c-0.686,0-1.289,0.087-1.81,0.26c-0.52,0.172-0.952,0.41-1.295,0.711c-0.343,0.302-0.624,0.679-0.841,1.131
					c-0.218,0.452-0.371,0.938-0.459,1.457s-0.133,1.102-0.133,1.749v7.99c0,0.655,0.042,1.245,0.127,1.771
					c0.084,0.526,0.232,1.024,0.442,1.495c0.21,0.471,0.483,0.863,0.819,1.176c0.335,0.312,0.769,0.559,1.3,0.738
					c0.531,0.181,1.147,0.271,1.848,0.271c0.701,0,1.315-0.091,1.843-0.271C20.253,18.299,20.686,18.055,21.025,17.745z
					 M15.243,16.575c-0.24-0.382-0.408-0.812-0.503-1.291c-0.096-0.478-0.144-1.048-0.144-1.71V5.132
					c0-0.663,0.048-1.23,0.144-1.705c0.096-0.475,0.264-0.901,0.503-1.28s0.579-0.664,1.019-0.855
					c0.438-0.191,0.979-0.287,1.621-0.287s1.183,0.095,1.622,0.287c0.438,0.192,0.778,0.477,1.018,0.855s0.407,0.806,0.503,1.28
					c0.096,0.475,0.144,1.042,0.144,1.705v8.442c0,0.662-0.05,1.232-0.149,1.71c-0.1,0.479-0.268,0.909-0.503,1.291
					c-0.236,0.383-0.574,0.672-1.013,0.866c-0.439,0.195-0.979,0.293-1.622,0.293s-1.183-0.098-1.621-0.293
					C15.822,17.247,15.482,16.958,15.243,16.575z M28.781,18.507V3.023l6.231,15.483h0.974V0.21h-1.095v15.45l-6.22-15.45h-0.985
					v18.297H28.781z M48.307,17.718c0.742-0.681,1.112-1.683,1.112-3.007c0-0.898-0.242-1.75-0.725-2.555
					c-0.483-0.807-1.149-1.629-1.998-2.467l-3.309-3.255c-0.487-0.493-0.833-0.958-1.04-1.396c-0.207-0.438-0.31-0.896-0.31-1.374
					c0-0.89,0.266-1.554,0.797-1.992c0.531-0.438,1.243-0.664,2.136-0.679h0.11c1.019,0,1.758,0.309,2.219,0.927
					c0.461,0.618,0.75,1.589,0.869,2.913l1.04-0.243c-0.103-1.655-0.509-2.834-1.217-3.537S46.276,0,44.971,0h-0.034
					c-1.225,0.007-2.2,0.336-2.927,0.988c-0.727,0.651-1.09,1.573-1.09,2.765c0,1.258,0.531,2.417,1.593,3.476l3.354,3.332
					c0.833,0.824,1.44,1.545,1.82,2.164c0.38,0.617,0.57,1.302,0.57,2.053c0,1.964-0.978,2.945-2.933,2.945
					c-0.465,0-0.876-0.065-1.234-0.198c-0.358-0.132-0.655-0.311-0.891-0.535c-0.236-0.225-0.439-0.515-0.609-0.872
					c-0.169-0.356-0.3-0.727-0.393-1.109c-0.092-0.382-0.171-0.834-0.238-1.357l-1.085,0.343c0.266,3.163,1.745,4.745,4.438,4.745
					C46.568,18.738,47.566,18.398,48.307,17.718z M57.419,18.507V1.192h3.808V0.21h-8.931v0.982h3.884v17.315H57.419z
					 M71.428,18.507v-0.972h-5.169V9.49h4.194V8.53h-4.194V1.192h5.113V0.21H65.02v18.297H71.428z M82.979,18.507v-0.972h-5.544
					V0.21h-1.239v18.297H82.979z M93.702,18.507v-0.972h-5.545V0.21h-1.239v18.297H93.702z M101.248,1.7l2.214,10.837h-4.406
					L101.248,1.7z M97.894,18.507l0.985-5.055h4.758l0.952,5.055h1.239L101.945,0.21h-1.417l-3.852,18.297H97.894z M113.795,18.507
					V1.192h3.807V0.21h-8.931v0.982h3.884v17.315H113.795z M121.44,18.507h1.229V0.21h-1.229V18.507z M135.637,17.745
					c0.34-0.309,0.614-0.696,0.824-1.164c0.211-0.468,0.358-0.962,0.443-1.484c0.084-0.522,0.127-1.11,0.127-1.766V5.308
					c0-0.809-0.076-1.524-0.227-2.146c-0.151-0.622-0.396-1.175-0.736-1.661c-0.34-0.486-0.808-0.857-1.405-1.115
					C134.066,0.129,133.342,0,132.495,0c-0.687,0-1.289,0.087-1.81,0.26c-0.521,0.172-0.952,0.41-1.295,0.711
					s-0.624,0.679-0.841,1.131c-0.219,0.452-0.371,0.938-0.459,1.457c-0.09,0.519-0.133,1.102-0.133,1.749v7.99
					c0,0.655,0.041,1.245,0.127,1.771c0.084,0.526,0.232,1.024,0.442,1.495s0.483,0.863,0.819,1.176
					c0.335,0.312,0.77,0.559,1.3,0.738c0.532,0.181,1.147,0.271,1.849,0.271s1.314-0.091,1.842-0.271
					C134.864,18.299,135.298,18.055,135.637,17.745z M129.855,16.575c-0.24-0.382-0.407-0.812-0.504-1.291
					c-0.096-0.478-0.144-1.048-0.144-1.71V5.132c0-0.663,0.048-1.23,0.144-1.705c0.097-0.475,0.264-0.901,0.504-1.28
					c0.239-0.379,0.579-0.664,1.019-0.855c0.438-0.191,0.979-0.287,1.621-0.287c0.642,0,1.182,0.095,1.621,0.287
					c0.438,0.192,0.778,0.477,1.018,0.855c0.24,0.379,0.408,0.806,0.504,1.28s0.145,1.042,0.145,1.705v8.442
					c0,0.662-0.051,1.232-0.15,1.71c-0.1,0.479-0.268,0.909-0.503,1.291c-0.236,0.383-0.574,0.672-1.013,0.866
					c-0.439,0.195-0.979,0.293-1.621,0.293c-0.643,0-1.183-0.098-1.621-0.293C130.434,17.247,130.094,16.958,129.855,16.575z
					 M143.393,18.507V3.023l6.23,15.483h0.975V0.21h-1.096v15.45l-6.22-15.45h-0.985v18.297H143.393z"/>
			</g>
			<path id="Fill-3" fill="#6917BF" d="M20.278,0L0,11.5v23L20.278,46l19.608-11.119l0.001,0.002l0.284-0.163l0.185-0.104
				l0.201-0.115v-0.004l0.023-0.013l-0.023-0.039V11.5L20.278,0z M20.477,1.025l18.35,10.405H14.414L20.477,1.025z M1.25,11.703
				L19.29,1.474L7.259,22.123L1.25,11.703z M27.347,12.222h12.407v20.872L27.347,12.222z M14.198,12.222h11.418l-11.418,6.402
				V12.222z M0.802,12.527l12.276,21.285H0.802V12.527z M21.101,15.664l5.522-3.096L32.2,21.95L21.101,15.664z M7.795,22.792
				l5.601-9.614v12.786L7.795,22.792z M20.447,16.206l4.839,2.741H18.85L20.447,16.206z M14.354,19.446l4.869-2.73l-3.238,5.558
				L14.354,19.446z M23.207,19.737h3.17v5.496L23.207,19.737z M16.446,23.073l1.943-3.335h3.894l1.826,3.166l-1.952,3.35H18.28
				L16.446,23.073z M27.179,20.019l5.559,3.148l-5.559,9.54V20.019z M14.198,20.776l3.158,5.477h-3.158V20.776z M24.569,23.701
				l1.638,2.84l-4.89,2.742L24.569,23.701z M33.296,23.795l6.184,10.403l-18.286,10.37L33.296,23.795z M8.354,24.021l11.118,6.298
				l-5.657,3.172L8.354,24.021z M15.302,27.044h6.395l-1.587,2.723L15.302,27.044z M26.376,27.357v6.455H14.862L26.376,27.357z
				 M1.792,34.604h24.281l-6.029,10.35L1.792,34.604z"/>
		</g>
	</g>
</g>
</svg>
